<svg width="1090.29518" height="674.01653" xmlns="http://www.w3.org/2000/svg">
 <title>Ride_till_I_can_no_more</title>

 <g>
  <title>background</title>
  <rect x="-1" y="-1" width="1092.29518" height="676.01653" id="canvas_background" fill="none"/>
 </g>
 <g>
  <title>Layer 1</title>
  <path d="m942.58477,422.48636c-23.00083,22.39038 -25.81021,56.8096 -25.81021,56.8096s34.48232,-1.88275 57.48315,-24.27313s25.81021,-56.80959 25.81021,-56.80959s-34.48233,1.88275 -57.48315,24.27312z" fill="#f2f2f2" id="svg_2"/>
  <ellipse cx="901.29518" cy="241.11957" rx="180" ry="30.88036" fill="#f2f2f2" id="svg_4"/>
  <path d="m867.79518,262.99993c-124.76612,0 -222.5,-17.13086 -222.5,-39s97.73388,-39 222.5,-39s222.5,17.13086 222.5,39s-97.73389,39 -222.5,39zm0,-76c-119.52344,0 -220.5,16.94385 -220.5,37s100.97656,37 220.5,37s220.5,-16.94384 220.5,-37s-100.97659,-37 -220.5,-37z" fill="#f2f2f2" id="svg_5"/>
  <circle cx="176.10228" cy="138.83504" r="77.41424" fill="#f2f2f2" id="svg_7"/>
  <path d="m194.35449,210.95557a105.47779,105.47779 0 1 1 105.47754,-105.478a105.59766,105.59766 0 0 1 -105.47754,105.478zm0,-208.95557a103.47779,103.47779 0 1 0 103.47754,103.47754a103.595,103.595 0 0 0 -103.47754,-103.47754z" fill="#f2f2f2" id="svg_8"/>
  <circle cx="253.51652" cy="314.43319" r="64.19717" fill="#f2f2f2" id="svg_9"/>
  <circle cx="220.78855" cy="538.23514" r="64.197166" fill="#f2f2f2" id="svg_10"/>
  <path d="m920.85421,673.85719l-217.64107,0s-4.41164,-64.7041 21.69058,-65.43937s23.16113,28.67568 55.88082,-11.76438s72.42447,-38.23424 77.57139,-14.33784s-9.9262,43.01352 17.64657,37.13133s67.27756,9.55856 44.85171,54.41026z" fill="#f2f2f2" id="svg_11"/>
  <path d="m808.35982,673.87191l-0.73455,-0.02944c1.71306,-42.60064 10.63508,-69.972 17.818,-85.43178c7.799,-16.78654 15.31438,-23.58208 15.38941,-23.64886l0.48863,0.54948c-0.074,0.06606 -7.50173,6.7941 -15.23827,23.467c-7.14325,15.39445 -16.01645,42.65344 -17.72322,85.0936z" fill="#fff" id="svg_12"/>
  <path d="m887.12959,673.95987l-0.70584,-0.20536a114.05766,114.05766 0 0 1 28.71593,-47.77524l0.494,0.54428a113.28289,113.28289 0 0 0 -28.50409,47.43632z" fill="#fff" id="svg_13"/>
  <path d="m737.49259,673.90782l-0.72846,-0.10125a80.08,80.08 0 0 0 -7.20284,-46.80693a64.44942,64.44942 0 0 0 -11.3677,-16.58782l0.50873,-0.53063a65.25638,65.25638 0 0 1 11.5181,16.79282a80.814,80.814 0 0 1 7.27217,47.23381z" fill="#fff" id="svg_14"/>
 </g>
</svg>