<svg width="657.70768" height="208.78787" xmlns="http://www.w3.org/2000/svg">
 <title>meet_the_team</title>

 <g>
  <title>background</title>
  <rect fill="none" id="canvas_background" height="210.78787" width="659.70768" y="-1" x="-1"/>
 </g>
 <g>
  <title>Layer 1</title>
  <circle id="svg_4" fill="#fff" r="7.56702" cy="19.27269" cx="28.01336"/>
  <circle id="svg_5" fill="#fff" r="7.56702" cy="19.27269" cx="54.53368"/>
  <circle id="svg_6" fill="#fff" r="7.56702" cy="19.27269" cx="81.05399"/>
  <polygon id="svg_8" fill="#ffb8b8" points="293.7380065917969,54.62699890136719 299.2699890136719,76.75399780273438 296.89898681640625,109.15499877929688 318.2359924316406,125.75 325.3479919433594,70.4320068359375 321.3970031738281,56.99800109863281 293.7380065917969,54.62699890136719 "/>
  <polygon id="svg_9" fill="#fff" points="313.4939880371094,104.41299438476562 317.44500732421875,83.07600402832031 325.3479919433594,68.06100463867188 345.10400390625,147.87701416015625 300.05999755859375,154.19900512695312 288.20599365234375,90.18899536132812 298.3139953613281,72.9320068359375 305.5920104980469,86.23699951171875 313.4939880371094,104.41299438476562 "/>
  <polygon id="svg_10" fill="#2f2e41" points="364.3219909667969,200.45401000976562 289.38299560546875,200.45401000976562 289.7869873046875,194.50201416015625 307.1659851074219,183.44100952148438 330.8760070800781,183.44100952148438 364.07000732421875,197.6669921875 364.3219909667969,200.45401000976562 "/>
  <circle id="svg_11" fill="#ffb8b8" r="18.96612" cy="47.51481" cx="308.75265"/>
  <path id="svg_12" fill="#2e4ae2" d="m380.66699,139.18677l-18.1735,-15.02051l1.81608,39.28541l0.17659,3.771l0.227,4.98156l0.5045,10.87128l0.80716,17.379l-39.56291,0l-2.69892,-8.3237l-1.072,8.3237l-36.183,0c-0.25218,-4.36368 -0.391,-9.62274 -0.164,-14.93229a73.92861,73.92861 0 0 1 1.854,-14.46559a23.58315,23.58315 0 0 1 3.96009,-8.95428l-7.113,-25.28653l-3.16555,15.8025l-22.1209,1.57647s0.01262,-0.40359 0.05042,-1.16026l0,-0.01262c0.31529,-7.78148 2.6485,-51.82153 14.17554,-60.46052l23.47044,-23.06685s0.01255,1.67737 0.23955,4.50238l0,0.01263c0.17658,2.39625 0.5045,5.61222 1.09729,9.33269l0,0.0378c1.32421,8.38681 3.94739,19.29589 9.16866,28.93125c1.92963,3.55651 3.49346,6.58335 4.76726,9.15611c5.51131,11.16133 5.51131,13.772 5.51131,13.772l2.28271,-27.20346l0.01263,-0.10084l0.01262,-0.10091l3.03939,-36.42261l0.454,-5.43564l0,-0.01263s36.08207,6.05361 47.14256,22.65065c8.89123,13.318 25.42524,34.8209 31.57976,42.75364c0.07566,0.08829 0.13871,0.17658 0.21437,0.26487l0.92063,1.19813c0.17658,0.227 0.34054,0.42875 0.47925,0.618c0.15134,0.1892 0.2775,0.34054 0.37834,0.47925l0.40358,0.517l-24.49195,4.74192z"/>
  <circle id="svg_13" fill="#2f2e41" r="2.37077" cy="147.08695" cx="319.81622"/>
  <circle id="svg_14" fill="#2f2e41" r="2.37077" cy="168.42384" cx="322.97724"/>
  <polygon id="svg_15" fill="#ffb8b8" points="371.1830139160156,177.11700439453125 364.0710144042969,184.22900390625 359.3290100097656,171.58499145507812 364.4830017089844,167.22799682617188 371.1830139160156,177.11700439453125 "/>
  <polygon id="svg_16" fill="#ffb8b8" points="281.093994140625,180.27801513671875 288.20599365234375,187.3900146484375 289.7869873046875,171.58499145507812 285.0450134277344,170.00399780273438 281.093994140625,180.27801513671875 "/>
  <path id="svg_17" fill="#2f2e41" d="m286.6255,32.9188s-5.53178,-7.01747 0,-10.5262l0,1.75434s11.85383,-13.15775 18.96613,-9.649l6.322,-1.75436l0,1.75436l3.95127,-1.75436l-0.79025,2.63155l5.53178,0l-2.37076,1.75436s18.17586,-0.87718 7.11229,12.28057c0,0 5.25886,7.88885 0.25866,12.27767c0,0 -4.20993,-9.64612 -9.74172,-7.01457a8.80921,8.80921 0 0 1 -9.48306,-0.87719s-11.06357,-0.87718 -9.48306,4.38592s0.79025,7.01746 0.79025,7.01746s-3.95127,2.63155 -3.161,4.38592s0.79026,7.01747 0.79026,7.01747s-3.95128,-6.14029 -5.53179,-5.2631s-10.27329,-7.89464 -3.161,-18.42084z"/>
  <path id="svg_18" fill="#2e4ae2" d="m262.91784,151.03823l-3.161,2.02542l0,1.92586a18.828,18.828 0 0 0 3.161,9.48306c3.161,4.74153 20.54663,20.54663 20.54663,20.54663l4.74153,-16.59536l-6.322,-15.8051l-3.95127,-4.74153l-15.01489,3.16102z"/>
  <path id="svg_19" fill="#2e4ae2" d="m394.1002,130.4916l8.67109,0.87991l2.39248,3.07136s1.58051,7.1123 -1.58051,11.06358s-30.81995,36.35173 -30.81995,36.35173l-11.85383,-14.22459l20.54664,-25.28816l-0.79026,-3.161l13.43434,-8.69283z"/>
  <polygon id="svg_21" fill="#2f2e41" points="615.073974609375,76.06399536132812 573.97998046875,76.85400390625 568.447998046875,38.9219970703125 615.073974609375,38.9219970703125 615.073974609375,76.06399536132812 "/>
  <path id="svg_22" fill="#a0616a" d="m635.22504,81.99077s14.22459,0 15.8051,15.01485s-3.9513,53.73732 -3.9513,53.73732l-4.7415,49.7861l-11.14136,0l0.868,-37.93224l3.161,-54.52761l-9.48306,-10.27331l9.48312,-15.80511z"/>
  <path id="svg_23" fill="#a0616a" d="m576.74616,81.99077s-13.43434,-3.161 -26.07842,15.01485c0,0 -32.40046,23.70766 -22.12714,32.40046s37.93224,14.22459 37.93224,14.22459s-10.27331,21.33689 -3.95127,22.12715s15.8051,-22.9174 13.43434,-26.86868s-11.06358,-6.322 -11.06358,-6.322l-20.54663,-10.27331s26.36317,-22.64706 27.80131,-12.904l7.76017,-3.69132l-3.16102,-23.70774z"/>
  <path id="svg_24" fill="#a0616a" d="m605.9856,55.1221a39.23992,39.23992 0 0 0 22.9174,25.28816l-20.54663,17.38562l-24.49791,-15.80511s8.6928,-5.53178 6.322,-17.38561l15.80514,-9.48306z"/>
  <circle id="svg_25" fill="#a0616a" r="18.96612" cy="48.80005" cx="590.1805"/>
  <path id="svg_26" fill="#2e4ae2" d="m573.58514,80.41026l14.42439,-2.82742s4.54173,10.73 19.55658,9.14947s17.66121,-8.066 17.66121,-8.066l13.949,3.32442s-7.90256,8.69281 -3.95128,26.07842c0,0 1.58051,28.44919 -7.1123,38.7225l-0.79025,15.80511s10.27332,26.86867 4.74153,37.93224l-77.445,0s3.161,-39.51275 17.38561,-49.78607l3.161,-7.1123s-6.322,-27.65893 -3.161,-32.40046c0,0.00004 2.37077,-30.02965 1.58051,-30.81991z"/>
  <path id="svg_27" fill="#2f2e41" d="m626.2382,66.62127c-4.30531,-2.36421 -6.30892,-7.67074 -6.45169,-12.58042c-0.143,-4.90967 1.04782,-9.76865 1.14139,-14.67953a11.346,11.346 0 0 0 -0.25467,-2.99345a11.514,11.514 0 0 0 -1.64649,-3.40812c-5.59867,-8.57871 -15.33074,-14.61327 -25.58169,-14.70831a11.36165,11.36165 0 0 0 -4.32888,0.79581c-1.05988,0.42447 -1.40643,0.37249 -1.60954,1.67382a10.83244,10.83244 0 0 0 -7.4343,0.23639a25.15193,25.15193 0 0 0 -6.50127,3.87183a29.322,29.322 0 0 0 -3.287,2.84592c-5.41738,5.61219 -6.66488,14.26173 -5.09547,21.90252c0.51022,2.48411 -1.93792,4.88227 -3.96352,6.408s-4.36474,2.92684 -5.3595,5.2596c-0.95676,2.244 -0.4313,4.81031 -0.62395,7.24214a12.38642,12.38642 0 0 1 -7.90206,10.40712a3.81226,3.81226 0 0 0 3.678,1.29347a9.05209,9.05209 0 0 0 3.83262,-1.82462a22.7973,22.7973 0 0 0 8.49891,-12.61032c0.595,2.70609 0.36426,5.49721 0.34236,8.26783a23.09415,23.09415 0 0 1 -1.67456,9.03058a13.2231,13.2231 0 0 1 -6.08811,6.70362c2.65717,1.30114 5.58551,0.35808 7.83724,-1.56127a16.3786,16.3786 0 0 0 4.51,-7.51451a37.45272,37.45272 0 0 0 1.8047,-14.21437a20.29582,20.29582 0 0 1 2.54691,13.83709a21.15477,21.15477 0 0 1 -7.17529,12.45462a41.21481,41.21481 0 0 0 18.86378,-4.7507a10.67682,10.67682 0 0 0 3.86908,-2.97971c1.87242,-2.59751 1.42944,-6.1402 0.90428,-9.29891c-0.41539,-2.49757 2.7057,-6.10827 0.91836,-7.90163a2.8277,2.8277 0 0 0 -1.72636,-0.823c-6.4697,-0.9237 -12.289,-4.63925 -15.09147,-10.54318a18.53122,18.53122 0 0 1 -1.94436,-7.80307a18.96692,18.96692 0 1 1 36.05269,8.24095a51.25419,51.25419 0 0 1 -1.89,11.29273c-1.35227,4.70864 -3.64316,9.51316 -7.8821,11.96915a12.30112,12.30112 0 0 0 4.68693,0.9925c5.319,0.58609 10.91309,0.45668 15.72735,-1.87941c4.81446,-2.33612 8.64072,-7.31101 8.29768,-12.65116z"/>
  <path id="svg_28" fill="#2f2e41" d="m612.70277,44.45366c-14.21707,-5.69819 -28.23291,-6.91372 -41.88352,0l0,-11.48551a7.48061,7.48061 0 0 1 7.48061,-7.48062l28.49314,0a5.90978,5.90978 0 0 1 5.90977,5.90978l0,13.05635z"/>
  <ellipse id="svg_29" fill="#a0616a" ry="4.74153" rx="2.96346" cy="46.82442" cx="609.14662"/>
  <polygon id="svg_31" fill="#2f2e41" points="73.77099609375,80.61900329589844 35.04899597167969,79.82899475097656 35.04899597167969,26.091995239257812 73.77099609375,30.042999267578125 73.77099609375,80.61900329589844 "/>
  <path id="svg_32" fill="#2f2e41" d="m109.23355,200.45445l-83.67871,0a35.96337,35.96337 0 0 1 2.77459,-8.803c2.371,-4.351 5.3348,-13.83508 7.70573,-22.23444c1.37471,-4.8681 2.54759,-9.37048 3.29171,-12.28378c0.5423,-2.13139 0.85759,-3.4178 0.85759,-3.4178l41.089,-16.597s1.16026,2.10613 3.02677,5.65a0.94569,0.94569 0 0 0 0.08829,0.15133c1.32421,2.50972 2.989,5.73831 4.8303,9.43353l0.01263,0c6.73456,13.41897 15.92855,33.11845 20.0021,48.10116z"/>
  <path id="svg_33" fill="#ffb8b8" d="m42.95147,57.70203l-5.53179,27.65891l18.96613,1.58051s3.161,-24.49791 3.95127,-25.28816s-17.38561,-3.95126 -17.38561,-3.95126z"/>
  <circle id="svg_34" fill="#ffb8b8" r="18.96612" cy="47.82384" cx="55.20042"/>
  <path id="svg_35" fill="#2e4ae2" d="m37.41968,77.45841s18.17587,3.95127 18.96613,3.161s22.12714,3.161 23.70765,10.27331s-2.37077,34.77122 -2.37077,34.77122s8.69281,3.95128 7.90255,5.53179s4.74154,3.161 3.161,5.53178s-30.02969,43.464 -43.464,42.67378s-37.93224,-90.08909 -37.93224,-90.08909s0.79025,-11.06357 11.06357,-11.06357s18.96611,-0.79022 18.96611,-0.79022z"/>
  <path id="svg_36" fill="#ffb8b8" d="m89.18139,141.07394s-11.07744,2.507 -9.09487,7.57553s13.8364,3.488 13.8364,3.488l-4.74153,-11.06353z"/>
  <path id="svg_37" fill="#2e4ae2" d="m54.61226,200.45445l-29.05742,0c-0.08822,0.454 -0.18913,0.92063 -0.29005,1.38726a28.15992,28.15992 0 0 0 -4.31318,-1.38726c-0.32792,-0.07567 -0.51712,-0.11354 -0.51712,-0.11354s-6.331,-23.71 -15.02051,-52.94391c-7.70573,-25.94229 0.12609,-52.51516 1.99267,-58.1778l0,-0.01262c0.23963,-0.70626 0.37834,-1.08459 0.37834,-1.08459l7.113,-5.52393l24.42885,74.53522l6.39415,19.49764s0.20175,1.08459 0.54229,2.762c1.03417,4.99426 3.40518,15.22233 5.77611,17.00063a9.79707,9.79707 0 0 1 2.57287,4.0609z"/>
  <path id="svg_38" fill="#2e4ae2" d="m69.42501,88.12685l9.86181,1.024l22.53865,28.21539s8.69281,7.90255 3.161,11.06357s-7.90255,9.48306 -7.90255,9.48306s7.1123,15.80511 -3.161,18.17587c0,0 -7.11229,-15.8051 -9.48306,-17.38561s3.161,-7.90255 3.161,-7.90255l-18.17587,-11.85383l0.00002,-30.8199z"/>
  <path id="svg_39" fill="#2f2e41" d="m55.20042,17.00394s-22.12714,-3.95127 -26.07842,15.8051a100.62045,100.62045 0 0 0 -1.87263,13.90894a77.9939,77.9939 0 0 1 -9.19093,32.7161l0,0l35.56148,10.27331s-9.48306,-15.01485 -7.90255,-21.33689a12.2876,12.2876 0 0 0 -0.06482,-4.79087a18.96129,18.96129 0 1 1 15.59007,1.96016c-2.64444,5.754 -4.08314,11.97778 -0.5104,16.265a70.124,70.124 0 0 0 15.8051,14.22459s-3.95127,-18.96612 2.37077,-30.02969s-0.00001,-47.41529 -23.70767,-48.99575z"/>
  <polygon id="svg_40" fill="#2f2e41" points="74.85200500488281,42.34800720214844 37.77400207519531,44.52299499511719 36.753997802734375,27.1510009765625 69.02400207519531,25.990997314453125 74.85200500488281,42.34800720214844 "/>
 </g>
</svg>