<svg width="245.56483" height="703" xmlns="http://www.w3.org/2000/svg">
 <title>add_file</title>

 <g>
  <title>background</title>
  <rect fill="none" id="canvas_background" height="705" width="247.56483" y="-1" x="-1"/>
 </g>
 <g>
  <title>Layer 1</title>
  <path id="svg_5" fill="#ffb9b9" d="m71.57385,209.22408l-5,34s-22,44 -8,89l18,-11s14,-54 14,-58s6,-51 6,-51l-25,-3z"/>
  <path id="svg_6" fill="#2f2e41" d="m81.57385,318.22408l-24,16l12,59s3,80 2,83s-19,125 -19,125s21,10 40,4c0,0 19,-90 19,-116l22,-91l34,104s2,70 6,93s4,26 4,26s32,9 40,0c0,0 -4,-118 -7,-130l-7,-143l-122,-30z"/>
  <path id="svg_7" fill="#2f2e41" d="m60.57385,601.22408s-2,-3 -8,5s-25,23 -25,23s-52,37 -13,39s46,-18 46,-18s33,-6 34,-13s-4,-35 -4,-35l-30,-1z"/>
  <path id="svg_8" fill="#2f2e41" d="m179.57385,619.22408s-7,24 -5,34s-4,47 24,44s19,-35 19,-35l-9,-41l-29,-2z"/>
  <circle id="svg_9" fill="#ffb9b9" r="33" cy="62.72408" cx="140.07385"/>
  <path id="svg_10" fill="#ffb9b9" d="m120.57385,80.22408s10,35 2,48s54,2 58,-10c0,0 -20,-22 -17,-43l-43,5z"/>
  <path id="svg_11" fill="#575a89" d="m136.57385,127.22408s27.37436,1.85067 40.68718,-13.07466l49.31282,21.07466l-21,116s42,98 4,107s-148,0 -143,-33s25,-73 25,-73s5,-44 -6,-64s-4,-43 -4,-43l44.01771,-29.16492s1.98229,11.16492 10.98229,11.16492z"/>
  <path id="svg_12" fill="#575a89" d="m93.57385,146.22408l-12,0s-14,3 -11,41l-7,27s35,9 40,4s-10,-72 -10,-72z"/>
  <path id="svg_13" fill="#ffb9b9" d="m238.57385,206.22408l-4,35s5,46 -12,82l-6,18s-6,52 -22,52s0,-59 0,-59l8,-59s6,-23 2,-33s-5,-31 -5,-31l39,-5z"/>
  <path id="svg_14" fill="#2f2e41" d="m131.96639,41.13091a131.94458,131.94458 0 0 1 14.78673,-1.466c3.58835,-0.15247 7.32673,-0.1282 10.56938,1.41606c4.88924,2.32843 7.62859,7.59193 9.42207,12.70169s3.06553,10.5704 6.39255,14.84324c5.53567,-5.77823 6.6419,-14.36872 7.46608,-22.32814c0.5797,-5.59838 1.0935,-11.56786 -1.49506,-16.56559c-1.59435,-3.07822 -4.22488,-5.477 -6.88936,-7.6947c-12.71968,-10.5866 -28.87449,-18.9168 -45.25168,-16.539l-0.38319,2.52845a45.15654,45.15654 0 0 0 -8.3538,0.525l0.58517,6.273l-8.69907,0.55181l-0.33371,6.53769l-8.79749,0.305a10.19308,10.19308 0 0 0 3.06878,6.62727a12.39174,12.39174 0 0 1 -4.51864,2.041c1.467,5.679 2.89109,11.371 4.40664,17.03723c1.11643,4.174 0.917,7.86191 5.39409,5.82489c3.40879,-1.551 5.71522,-6.48311 9.16152,-8.52087c4.06018,-2.40065 8.86538,-3.37789 13.46899,-4.09803z"/>
  <path id="svg_15" fill="#575a89" d="m212.57385,136.22408l14,0s23,77 19,78s-51,4 -51,4l18,-82z"/>
 </g>
</svg>