<svg width="355.32845000000003" height="660.70737" xmlns="http://www.w3.org/2000/svg">
 <title>add_color</title>

 <g>
  <title>background</title>
  <rect fill="none" id="canvas_background" height="662.70737" width="357.32845" y="-1" x="-1"/>
 </g>
 <g>
  <title>Layer 1</title>
  <rect id="svg_17" fill="#d0cde1" transform="rotate(90 2624.4704589843755,-28.430446624755636) " height="126.23762" width="314.19142" y="-91.54926" x="2467.37491"/>
  <rect id="svg_18" fill="#e6a642" transform="rotate(90 2536.1044921875005,-205.16311645507793) " height="75.74257" width="75.74257" y="-243.0344" x="2498.233"/>
  <rect id="svg_20" fill="#3f3d56" transform="rotate(90 2638.4970703125,121.51342773437524) " height="36.46865" width="123.43234" y="103.27911" x="2576.7809"/>
  <polygon id="svg_21" fill="#ffb8b8" points="194.50146484375,353.7402801513672 139.771484375,469.89125061035156 178.08245849609375,491.1752471923828 246.19244384765625,375.02427673339844 194.50146484375,353.7402801513672 "/>
  <polygon id="svg_22" opacity="0.1" points="194.50146484375,353.7402801513672 139.771484375,469.89125061035156 178.08245849609375,491.1752471923828 246.19244384765625,375.02427673339844 194.50146484375,353.7402801513672 "/>
  <path id="svg_23" fill="#2f2e41" d="m142.20347,454.07996l-65.677,135.00277l-37.09536,37.09535s-51.08213,0.60813 -31.01415,20.068s82.09628,-3.64872 82.09628,-3.64872l-1.82436,7.29745l40.136,-3.64873l-1.21624,-14.59489l-3.64873,-1.82436s2.43249,-27.97355 -3.64872,-33.44663s10.94617,-12.16242 10.94617,-12.16242l69.93387,-121.62411l-58.98776,-8.51371z"/>
  <path id="svg_24" fill="#ffb8b8" d="m161.05521,345.22634s-58.37953,34.05475 -43.17653,65.0689s20.068,33.44663 20.068,33.44663l31.01415,-22.50046l-5.47315,-12.77053l60.81206,-35.271s-46.82527,-35.87911 -63.24453,-27.97354z"/>
  <path id="svg_25" fill="#2f2e41" d="m124.56798,439.48503l83.31252,133.1784l8.51368,37.09536s-30.406,38.3116 -7.90556,40.74408s48.04152,-33.44663 49.25776,-49.86591s3.04061,-26.75731 3.04061,-26.75731l6.0812,2.43249s18.24362,-29.18979 9.12181,-32.83851a141.96756,141.96756 0 0 0 -16.41926,-5.47309s-13.37865,-8.51369 -26.14918,-5.47309c0,0 2.43248,-9.72992 0,-13.98677s-67.37588,-111.55346 -67.37588,-111.55346l-41.4777,32.49781z"/>
  <circle id="svg_26" fill="#ffb8b8" r="33.44663" cy="47.85536" cx="268.08444"/>
  <path id="svg_27" fill="#ffb8b8" d="m258.96262,69.13959s12.16242,34.66287 9.12181,44.3928s-27.36542,55.339 -27.36542,55.339l3.0406,21.28422l60.81207,-93.65059s-15.203,-20.068 -10.94617,-34.05476l-34.66289,6.68933z"/>
  <path id="svg_28" fill="#2f2e41" d="m281.46309,328.19896l-17.6355,72.36635s-87.56937,-52.29837 -111.89419,-50.474c0,0 52.90649,-60.20394 72.97447,-60.20394s56.55522,38.31159 56.55522,38.31159z"/>
  <path id="svg_29" fill="#575a89" d="m325.24777,101.36996s-13.98678,-22.50046 -31.01415,-3.0406s-48.04153,70.542 -48.04153,70.542l2.17251,-14.53815s-19.19988,14.53815 -20.41613,33.38988s-6.0812,82.09628 -6.0812,82.09628l-7.90559,26.75732l75.407,43.78468l12.16241,-20.6761s45.609,8.51369 50.474,3.0406s-28.32766,-94.3926 -28.32766,-94.3926l1.57034,-126.96331z"/>
  <path id="svg_30" fill="#ffb8b8" d="m258.96262,227.85906l-36.48723,50.474s-43.78468,17.02738 -36.48724,31.01415s44.39281,-21.28425 44.39281,-21.28425l54.73085,-48.04153l-26.14919,-12.16237z"/>
  <path id="svg_31" opacity="0.1" d="m294.84174,106.84307s-26.75731,42.56844 -27.97355,74.79883s-0.91218,28.88573 -0.91218,28.88573l-13.37865,18.85173l31.62232,17.6355l16.11519,-16.72332s35.87912,-10.33805 31.62227,-40.13595s-6.68932,-85.13689 -12.77053,-85.13689s-24.32487,1.82437 -24.32487,1.82437z"/>
  <path id="svg_32" fill="#575a89" d="m296.05798,100.76186s-26.75731,42.56844 -27.97355,74.79883s1.82436,32.83851 1.82436,32.83851l-16.41925,21.89234l30.406,16.41926l17.63549,-22.50046s35.87912,-10.338 31.62228,-40.136s-6.68933,-85.13688 -12.77054,-85.13688s-24.32479,1.8244 -24.32479,1.8244z"/>
  <path id="svg_33" fill="#2f2e41" d="m229.14182,41.24608s-10.2993,-49.75546 43.64341,-37.30622c0,0 37.09834,-9.78116 53.03652,36.34l16.26688,48.38l-6.34249,-2.84859l-2.36423,6.42226l-9.676,3.25337l-4.86324,-8.05772l-1.26433,10.33341l-80.20073,14.23683s34.5593,-24.17414 32.19949,-62.58309l-6.33742,7.81303l-34.09786,-15.98328z"/>
 </g>
</svg>