<svg id="Layer_1" enable-background="new 0 0 512 512" height="512" viewBox="0 0 512 512" width="512" xmlns="http://www.w3.org/2000/svg"><g><path d="m256 208c-83.81 0-152 68.19-152 152s68.19 152 152 152 152-68.19 152-152-68.19-152-152-152zm0 264c-61.76 0-112-50.24-112-112s50.24-112 112-112 112 50.24 112 112-50.24 112-112 112z"/><path d="m256 264c-52.93 0-96 43.07-96 96s43.07 96 96 96 96-43.07 96-96-43.07-96-96-96zm-12 88h23.405c15.237 0 28.132 11.924 28.583 27.154.468 15.825-12.267 28.846-27.988 28.846-2.209 0-4 1.791-4 4v9.438c0 4.262-3.218 7.982-7.471 8.255-4.66.299-8.529-3.388-8.529-7.983v-9.71c0-2.209-1.791-4-4-4h-19.728c-4.262 0-7.982-3.218-8.255-7.471-.299-4.66 3.388-8.529 7.983-8.529h43.653c6.247 0 11.712-4.63 12.293-10.85.667-7.136-4.946-13.15-11.946-13.15h-23.405c-15.237 0-28.132-11.924-28.583-27.154-.468-15.825 12.267-28.846 27.988-28.846 2.209 0 4-1.791 4-4v-9.438c0-4.262 3.218-7.982 7.471-8.255 4.66-.299 8.529 3.388 8.529 7.983v9.71c0 2.209 1.791 4 4 4h19.728c4.262 0 7.982 3.218 8.255 7.471.299 4.66-3.388 8.529-7.983 8.529h-43.653c-6.247 0-11.712 4.63-12.293 10.85-.667 7.136 4.946 13.15 11.946 13.15z"/><path d="m464 32h-40v-8c0-13.23-10.77-24-24-24s-24 10.77-24 24v8h-240v-8c0-13.23-10.77-24-24-24s-24 10.77-24 24v8h-40c-17.64 0-32 14.35-32 32v336c0 17.65 14.36 32 32 32h48c4.42 0 8-3.58 8-8s-3.58-8-8-8h-48c-8.82 0-16-7.18-16-16v-272h448v272c0 8.82-7.18 16-16 16h-48c-4.42 0-8 3.58-8 8s3.58 8 8 8h48c17.64 0 32-14.35 32-32 0-14.641 0-319.924 0-336 0-17.65-14.36-32-32-32zm-344 32c0 4.41-3.59 8-8 8s-8-3.59-8-8c0-13.903 0-26.139 0-40 0-4.41 3.59-8 8-8s8 3.59 8 8zm288 0c0 4.41-3.59 8-8 8s-8-3.59-8-8c0-13.903 0-26.139 0-40 0-4.41 3.59-8 8-8s8 3.59 8 8z"/></g></svg>