<svg height="512px" viewBox="-32 0 512 512" width="512px" xmlns="http://www.w3.org/2000/svg"><path d="m432 512h-373.332031c-32.363281 0-58.667969-26.304688-58.667969-58.667969v-394.664062c0-8.832031 7.167969-16 16-16s16 7.167969 16 16v394.664062c0 14.699219 11.96875 26.667969 26.667969 26.667969h357.332031v-378.667969c0-8.832031 7.167969-16 16-16s16 7.167969 16 16v394.667969c0 8.832031-7.167969 16-16 16zm0 0"/><path d="m432 117.332031h-373.332031c-32.363281 0-58.667969-26.300781-58.667969-58.664062s26.304688-58.667969 58.667969-58.667969h330.664062c8.832031 0 16 7.167969 16 16v69.332031h26.667969c8.832031 0 16 7.167969 16 16s-7.167969 16-16 16zm-373.332031-85.332031c-14.699219 0-26.667969 11.96875-26.667969 26.667969s11.96875 26.664062 26.667969 26.664062h314.664062v-53.332031zm0 0"/><path d="m224 437.332031c-76.457031 0-138.667969-62.207031-138.667969-138.664062 0-76.460938 62.210938-138.667969 138.667969-138.667969s138.667969 62.207031 138.667969 138.667969c0 76.457031-62.210938 138.664062-138.667969 138.664062zm0-245.332031c-58.816406 0-106.667969 47.851562-106.667969 106.667969 0 58.816406 47.851563 106.664062 106.667969 106.664062s106.667969-47.847656 106.667969-106.664062c0-58.816407-47.851563-106.667969-106.667969-106.667969zm0 0"/><path d="m261.332031 352c-4.09375 0-8.191406-1.558594-11.304687-4.691406l-37.335938-37.335938c-3.007812-3.007812-4.691406-7.0625-4.691406-11.304687v-58.667969c0-8.832031 7.167969-16 16-16s16 7.167969 16 16v52.03125l32.640625 32.640625c6.25 6.25 6.25 16.382813 0 22.636719-3.117187 3.132812-7.210937 4.691406-11.308594 4.691406zm0 0"/></svg>