<?xml version="1.0" encoding="iso-8859-1"?>
<!-- Generator: Adobe Illustrator 19.0.0, SVG Export Plug-In . SVG Version: 6.00 Build 0)  -->
<svg version="1.1" id="Capa_1" xmlns="http://www.w3.org/2000/svg" xmlns:xlink="http://www.w3.org/1999/xlink" x="0px" y="0px"
	 viewBox="0 0 490.667 490.667" style="enable-background:new 0 0 490.667 490.667;" xml:space="preserve">
<g>
	<g>
		<path d="M484.075,22.164c-3.989-1.685-8.576-0.747-11.627,2.304L245.333,251.583L18.219,24.447
			c-3.051-3.029-7.659-3.947-11.627-2.304C2.603,23.785,0,27.69,0,31.999v192c0,2.837,1.131,5.547,3.115,7.552l234.667,234.667
			c2.091,2.069,4.821,3.115,7.552,3.115s5.461-1.045,7.552-3.115l234.667-234.667c1.984-2.005,3.115-4.715,3.115-7.552v-192
			C490.667,27.69,488.064,23.785,484.075,22.164z M469.333,219.583l-224,224l-224-224V57.748l216.469,216.469
			c4.16,4.16,10.923,4.16,15.083,0L469.333,57.748V219.583z"/>
	</g>
</g>
<g>
</g>
<g>
</g>
<g>
</g>
<g>
</g>
<g>
</g>
<g>
</g>
<g>
</g>
<g>
</g>
<g>
</g>
<g>
</g>
<g>
</g>
<g>
</g>
<g>
</g>
<g>
</g>
<g>
</g>
</svg>
