<?xml version="1.0" encoding="iso-8859-1"?>
<!-- Generator: Adobe Illustrator 19.0.0, SVG Export Plug-In . SVG Version: 6.00 Build 0)  -->
<svg version="1.1" id="Capa_1" xmlns="http://www.w3.org/2000/svg" xmlns:xlink="http://www.w3.org/1999/xlink" x="0px" y="0px"
	 viewBox="0 0 477.874 477.874" style="enable-background:new 0 0 477.874 477.874;" xml:space="preserve">
<g>
	<g>
		<path d="M460.797,0.002c-0.866,0-1.731,0.067-2.588,0.198L238.937,33.924L19.664,0.201C10.348-1.232,1.635,5.159,0.202,14.475
			c-0.132,0.856-0.198,1.721-0.198,2.588V235.67c-0.002,50.404,24.726,97.602,66.167,126.293l163.055,112.879
			c5.843,4.043,13.579,4.043,19.422,0l163.055-112.879c41.442-28.691,66.169-75.889,66.167-126.293V17.063
			C477.867,7.637,470.223-0.001,460.797,0.002z M443.737,235.67c-0.009,39.196-19.245,75.894-51.473,98.202L238.937,440.043
			L85.61,333.871c-32.228-22.308-51.464-59.006-51.473-98.202V36.962l202.206,31.095c1.696,0.266,3.424,0.266,5.12,0l202.274-31.095
			V235.67z"/>
	</g>
</g>
<g>
	<g>
		<path d="M387.956,107.396c-6.548-6.78-17.352-6.968-24.132-0.42c-0.142,0.137-0.282,0.277-0.42,0.42L204.804,265.997
			l-56.201-56.201c-6.78-6.548-17.584-6.361-24.132,0.419c-6.388,6.614-6.388,17.1,0,23.713l68.267,68.267
			c6.665,6.662,17.468,6.662,24.132,0l170.667-170.667C394.316,124.981,394.504,114.176,387.956,107.396z"/>
	</g>
</g>
<g>
</g>
<g>
</g>
<g>
</g>
<g>
</g>
<g>
</g>
<g>
</g>
<g>
</g>
<g>
</g>
<g>
</g>
<g>
</g>
<g>
</g>
<g>
</g>
<g>
</g>
<g>
</g>
<g>
</g>
</svg>
