<svg id="Capa_1" enable-background="new 0 0 512 512" height="512" viewBox="0 0 512 512" width="512" xmlns="http://www.w3.org/2000/svg"><g><path d="m426 62h-15v-17c0-24.813-20.187-45-45-45h-210c-3.979 0-7.793 1.581-10.606 4.394l-100 100c-2.813 2.813-4.394 6.627-4.394 10.606v292c0 24.813 20.187 45 45 45h15v15c0 24.813 20.187 45 45 45h280c24.813 0 45-20.187 45-45v-360c0-24.813-20.187-45-45-45zm-285-10.787v48.787h-48.787zm-55 370.787c-8.271 0-15-6.729-15-15v-277h85c8.284 0 15-6.716 15-15v-85h195c8.271 0 15 6.729 15 15v362c0 8.271-6.729 15-15 15zm355 45c0 8.271-6.729 15-15 15h-280c-8.271 0-15-6.729-15-15v-15h235c24.813 0 45-20.187 45-45v-315h15c8.271 0 15 6.729 15 15z"/><path d="m322.512 123.255c5.333-7.395 8.488-16.461 8.488-26.255 0-24.813-20.187-45-45-45s-45 20.187-45 45c0 9.794 3.155 18.86 8.488 26.255-17.182 11.71-28.488 31.43-28.488 53.745v20c0 8.284 6.716 15 15 15h100c8.284 0 15-6.716 15-15v-20c0-22.315-11.306-42.035-28.488-53.745zm-36.512-41.255c8.271 0 15 6.729 15 15s-6.729 15-15 15-15-6.729-15-15 6.729-15 15-15zm35 100h-70v-5c0-19.299 15.701-35 35-35s35 15.701 35 35z"/><path d="m116 212h70c8.284 0 15-6.716 15-15s-6.716-15-15-15h-70c-8.284 0-15 6.716-15 15s6.716 15 15 15z"/><path d="m336 242h-220c-8.284 0-15 6.716-15 15s6.716 15 15 15h220c8.284 0 15-6.716 15-15s-6.716-15-15-15z"/><path d="m336 302h-220c-8.284 0-15 6.716-15 15s6.716 15 15 15h220c8.284 0 15-6.716 15-15s-6.716-15-15-15z"/><path d="m336 362h-220c-8.284 0-15 6.716-15 15s6.716 15 15 15h220c8.284 0 15-6.716 15-15s-6.716-15-15-15z"/></g></svg>