<svg width="115.25" height="127.32263" xmlns="http://www.w3.org/2000/svg">
 <title>online_cv</title>

 <g>
  <title>background</title>
  <rect fill="none" id="canvas_background" height="129.32263" width="117.25" y="-1" x="-1"/>
 </g>
 <g>
  <title>Layer 1</title>
  <path id="svg_28" fill="#ffb8b8" d="m77.21472,34.8054s-7.91562,22.529 -3.04447,25.99506s-16.44012,31.77174 -16.44012,31.77174l-25.57351,-6.932l14.00454,-23.68439s1.82668,-23.68438 1.82668,-27.15039s29.22688,-0.00002 29.22688,-0.00002z"/>
  <path id="svg_29" opacity="0.1" d="m77.21472,34.8054s-7.91562,22.529 -3.04447,25.99506s-16.44012,31.77174 -16.44012,31.77174l-25.57351,-6.932l14.00454,-23.68439s1.82668,-23.68438 1.82668,-27.15039s29.22688,-0.00002 29.22688,-0.00002z"/>
  <circle id="svg_30" fill="#ffb8b8" r="20.79605" cy="30.76172" cx="61.04001"/>
  <path id="svg_31" fill="#d0cde1" d="m45.57105,117.69696a76.559,76.559 0 0 1 -7.64747,-2.12271l3.9801,-27.292l1.23192,-8.41506l6.31127,2.36911c0.8529,0.31273 1.81951,0.68227 2.92824,1.08975a6.65729,6.65729 0 0 0 5.28785,-0.18948c6.10275,-2.79556 9.73223,-13.67446 9.73223,-13.67446s0.2464,3.05138 0.56862,8.216c0.57805,9.06894 1.412,24.66707 1.6678,41.69621q-3.24088,0.27009 -6.54817,0.26531a78.642,78.642 0 0 1 -13.02058,-1.07084c-1.5163,-0.2369 -3.01353,-0.53066 -4.49181,-0.87183z"/>
  <path id="svg_32" fill="#d0cde1" d="m51.21891,66.00318l-1.77208,16.2331l-0.86233,7.85592l-3.01345,27.60476a76.559,76.559 0 0 1 -7.64747,-2.12271a79.39979,79.39979 0 0 1 -27.927,-16.24258l-3.83793,-13.69342a16.19547,16.19547 0 0 1 0.24639,-2.43539a0.03484,0.03484 0 0 1 0.00949,-0.02846a17.22015,17.22015 0 0 1 0.47382,-2.12271a0.07338,0.07338 0 0 0 0.00949,-0.02845a15.73221,15.73221 0 0 1 3.8853,-6.93674c4.6245,-4.62444 35.23329,-19.06654 35.23329,-19.06654l0.578,1.213l4.62448,9.77022z"/>
  <path id="svg_33" fill="#2f2e41" d="m60.59698,1.37096c4.61024,-0.16481 9.54388,-0.24633 13.43095,2.23806a19.66294,19.66294 0 0 1 4.64175,4.54386c3.78579,4.78587 7.05688,10.80759 5.65065,16.74554l-1.63329,-0.637a10.69475,10.69475 0 0 0 1.0316,4.58235c-0.23,-0.66878 -1.00023,0.41235 -0.794,1.08884l1.7992,5.90252a5.55715,5.55715 0 0 0 -7.087,4.22881c-0.20562,-6.85584 -0.91684,-14.7173 -6.47827,-18.73166c-2.80462,-2.02443 -6.35411,-2.64244 -9.76922,-3.19123c-3.15051,-0.50627 -6.45328,-0.98906 -9.47094,0.04812s-5.58739,4.12338 -4.90328,7.24012a3.22511,3.22511 0 0 0 -3.63522,1.79152a9.41008,9.41008 0 0 0 -0.74445,4.30752c-1.48318,1.04823 -3.1711,-1.03325 -3.77556,-2.74591c-1.41886,-4.02015 -2.68,-8.29951 -1.91567,-12.49362s4.182,-8.20222 8.44516,-8.21645a2.96018,2.96018 0 0 1 -0.76986,-2.084l3.51383,-0.2969a3.88355,3.88355 0 0 1 -2.32065,-1.2235c1.41071,1.55239 12.5029,-3.01541 14.78427,-3.09699z"/>
  <path id="svg_34" fill="#d0cde1" d="m108.98714,81.02327c-0.54017,4.33072 -3.62949,16.5648 -6.7472,28.325a76.93847,76.93847 0 0 1 -7.12628,3.57263a78.80279,78.80279 0 0 1 -25.48209,6.45343q-3.24088,0.27009 -6.54817,0.26531a78.642,78.642 0 0 1 -13.02058,-1.07084c1.611,-6.21652 3.78108,-16.46052 5.809,-26.496c0.61594,-3.03247 1.22244,-6.05545 1.79106,-8.93625c2.22693,-11.35278 3.95165,-20.60177 3.95165,-20.60177s6.91776,-6.78508 11.02107,-8.35814a3.55622,3.55622 0 0 1 1.77208,-0.29377c3.38309,0.55908 8.00758,8.65191 8.00758,8.65191s20.75331,6.91783 25.60522,14.77375a5.74767,5.74767 0 0 1 0.96666,3.71474z"/>
  <path id="svg_35" fill="#d0cde1" d="m21.17874,81.02327l-1.213,25.9275a78.77283,78.77283 0 0 1 -9.96921,-7.61907a72.43138,72.43138 0 0 1 -5.92275,-5.8943c0.99507,-4.36867 1.82894,-8.04546 2.33121,-10.23451a0.03484,0.03484 0 0 1 0.00949,-0.02846c0.26531,-1.213 0.43588,-1.96162 0.47382,-2.12271a0.07338,0.07338 0 0 0 0.00949,-0.02845l14.28095,0z"/>
  <path id="svg_36" fill="#d0cde1" d="m113.12832,101.92823a78.46291,78.46291 0 0 1 -10.88838,7.42a76.93847,76.93847 0 0 1 -7.12628,3.57263l-2.30276,-13.41863l2.31224,-25.41574l12.89738,3.222l0.96662,0.2464l4.14118,24.37334z"/>
 </g>
</svg>