<svg height="512pt" viewBox="0 0 512 512" width="512pt" xmlns="http://www.w3.org/2000/svg"><path d="m78.019531 283.699219c-4.714843 0-9.34375-2.210938-12.273437-6.34375-4.773438-6.78125-3.164063-16.125 3.605468-20.917969l85.984376-55.398438c6.8125-4.746093 16.144531-3.148437 20.917968 3.605469 4.773438 6.78125 3.164063 16.125-3.605468 20.917969l-85.984376 55.398438c-2.636718 1.847656-5.652343 2.738281-8.644531 2.738281zm0 0" fill="#c4b3af"/><path d="m217.839844 204.816406c-6.941406 0-13.183594-4.847656-14.660156-11.90625-1.714844-8.101562 3.484374-16.070312 11.585937-17.769531l76.289063-17.636719c8.070312-1.65625 16.066406 3.484375 17.769531 11.585938 1.710937 8.101562-3.488281 16.070312-11.589844 17.769531l-76.289063 17.636719c-1.039062.21875-2.078124.320312-3.105468.320312zm0 0" fill="#c4b3af"/><path d="m345.925781 161.0625c-4.128906 0-8.246093-1.699219-11.203125-5.039062-5.507812-6.179688-4.953125-15.671876 1.242188-21.167969l90.148437-80.125c6.164063-5.539063 15.644531-4.980469 21.164063 1.246093 5.507812 6.179688 4.953125 15.671876-1.242188 21.164063l-90.148437 80.128906c-2.855469 2.546875-6.414063 3.792969-9.960938 3.792969zm0 0" fill="#c4b3af"/><path d="m90 361h-75c-8.402344 0-15 6.597656-15 15v121c0 8.398438 6.597656 15 15 15h75c8.402344 0 15-6.601562 15-15v-121c0-8.402344-6.597656-15-15-15zm0 0" fill="#4a696f"/><path d="m226 271h-75c-8.402344 0-15 6.597656-15 15v211c0 8.398438 6.597656 15 15 15h75c8.402344 0 15-6.601562 15-15v-211c0-8.402344-6.597656-15-15-15zm0 0" fill="#ffd400"/><path d="m361 241h-75c-8.402344 0-15 6.597656-15 15v241c0 8.398438 6.597656 15 15 15h75c8.402344 0 15-6.601562 15-15v-241c0-8.402344-6.597656-15-15-15zm0 0" fill="#90e36a"/><path d="m497 121h-75c-8.402344 0-15 6.597656-15 15v361c0 8.398438 6.597656 15 15 15h75c8.402344 0 15-6.601562 15-15v-361c0-8.402344-6.597656-15-15-15zm0 0" fill="#ff8597"/><g fill="#dfd7d5"><path d="m53.5 241c-24.902344 0-45 20.097656-45 45 0 24.898438 20.097656 45 45 45s45-20.101562 45-45c0-24.902344-20.097656-45-45-45zm0 0"/><path d="m188.5 151c-24.902344 0-45 20.097656-45 45 0 24.898438 20.097656 45 45 45s45-20.101562 45-45c0-24.902344-20.097656-45-45-45zm0 0"/><path d="m323.5 121c-24.902344 0-45 20.097656-45 45 0 24.898438 20.097656 45 45 45s45-20.101562 45-45c0-24.902344-20.097656-45-45-45zm0 0"/><path d="m458.5 0c-24.902344 0-45 20.097656-45 45 0 24.898438 20.097656 45 45 45s45-20.101562 45-45c0-24.902344-20.097656-45-45-45zm0 0"/></g><path d="m458.5 90v-90c24.902344 0 45 20.097656 45 45 0 24.898438-20.097656 45-45 45zm0 0" fill="#d2c5c2"/><path d="m458.5 60c-8.269531 0-15-6.730469-15-15s6.730469-15 15-15 15 6.730469 15 15-6.730469 15-15 15zm0 0" fill="#4a696f"/><path d="m473.5 45c0-8.269531-6.730469-15-15-15v30c8.269531 0 15-6.730469 15-15zm0 0" fill="#3e5959"/><path d="m512 136v361c0 8.398438-6.597656 15-15 15h-37.5v-391h37.5c8.402344 0 15 6.597656 15 15zm0 0" fill="#ff4949"/><path d="m323.5 211v-90c24.902344 0 45 20.097656 45 45 0 24.898438-20.097656 45-45 45zm0 0" fill="#d2c5c2"/><path d="m323.5 181c-8.269531 0-15-6.730469-15-15s6.730469-15 15-15 15 6.730469 15 15-6.730469 15-15 15zm0 0" fill="#4a696f"/><path d="m338.5 166c0-8.269531-6.730469-15-15-15v30c8.269531 0 15-6.730469 15-15zm0 0" fill="#3e5959"/><path d="m376 256v241c0 8.398438-6.597656 15-15 15h-37.5v-271h37.5c8.402344 0 15 6.597656 15 15zm0 0" fill="#56c225"/><path d="m188.5 241v-90c24.902344 0 45 20.097656 45 45 0 24.898438-20.097656 45-45 45zm0 0" fill="#d2c5c2"/><path d="m188.5 211c-8.269531 0-15-6.730469-15-15s6.730469-15 15-15 15 6.730469 15 15-6.730469 15-15 15zm0 0" fill="#4a696f"/><path d="m203.5 196c0-8.269531-6.730469-15-15-15v30c8.269531 0 15-6.730469 15-15zm0 0" fill="#3e5959"/><path d="m241 286v211c0 8.398438-6.597656 15-15 15h-37.5v-241h37.5c8.402344 0 15 6.597656 15 15zm0 0" fill="#ff9f00"/><path d="m53.5 331v-90c24.902344 0 45 20.097656 45 45 0 24.898438-20.097656 45-45 45zm0 0" fill="#d2c5c2"/><path d="m53.5 301c-8.269531 0-15-6.730469-15-15s6.730469-15 15-15 15 6.730469 15 15-6.730469 15-15 15zm0 0" fill="#4a696f"/><path d="m68.5 286c0-8.269531-6.730469-15-15-15v30c8.269531 0 15-6.730469 15-15zm0 0" fill="#3e5959"/><path d="m105 376v121c0 8.398438-6.597656 15-15 15h-37.5v-151h37.5c8.402344 0 15 6.597656 15 15zm0 0" fill="#3e5959"/></svg>