<svg id="color" enable-background="new 0 0 24 24" height="512" viewBox="0 0 24 24" width="512" xmlns="http://www.w3.org/2000/svg"><path d="m23 8.04h-22c-.552 0-1 .448-1 1v11.96c0 1.654 1.346 3 3 3h18c1.654 0 3-1.346 3-3v-11.96c0-.552-.448-1-1-1z" fill="#eceff1"/><path d="m21 3h-18c-1.657 0-3 1.343-3 3v3.04h24v-3.04c0-1.657-1.343-3-3-3z" fill="#2196f3"/><path d="m6 0h-1c-.552 0-1 .448-1 1v4c0 .552.448 1 1 1h1c.552 0 1-.448 1-1v-4c0-.552-.448-1-1-1z" fill="#1976d2"/><path d="m19 0h-1c-.552 0-1 .448-1 1v4c0 .552.448 1 1 1h1c.552 0 1-.448 1-1v-4c0-.552-.448-1-1-1z" fill="#1976d2"/><g fill="#ffc107"><path d="m12 18.298-2.627 1.452.502-3.075-2.125-2.178 2.937-.449 1.313-2.798 1.313 2.798 2.937.449-2.125 2.178.502 3.075z"/><path d="m14.627 20.5c-.125 0-.25-.031-.363-.094l-2.264-1.251-2.264 1.251c-.251.139-.561.122-.795-.043-.235-.166-.354-.451-.309-.734l.441-2.702-1.861-1.907c-.196-.201-.264-.496-.174-.762.089-.267.319-.46.598-.503l2.541-.389 1.144-2.436c.246-.526 1.111-.526 1.357 0l1.144 2.436 2.541.389c.278.042.509.236.598.503.09.267.022.561-.174.762l-1.861 1.907.441 2.702c.046.283-.073.568-.309.734-.128.091-.28.137-.431.137zm-2.627-2.952c.125 0 .25.031.363.094l1.274.705-.253-1.551c-.038-.235.037-.474.203-.645l1.106-1.133-1.493-.229c-.247-.038-.459-.196-.565-.422l-.635-1.352-.635 1.352c-.106.226-.318.385-.565.422l-1.494.229 1.106 1.133c.166.17.241.41.203.645l-.253 1.551 1.274-.705c.114-.063.239-.094.364-.094z"/></g></svg>